<?xml version="1.0" encoding="iso-8859-1"?>
<!-- Generator: Adobe Illustrator 19.0.0, SVG Export Plug-In . SVG Version: 6.00 Build 0)  -->
<svg version="1.1" id="Layer_1" xmlns="http://www.w3.org/2000/svg" xmlns:xlink="http://www.w3.org/1999/xlink" x="0px" y="0px" viewBox="0 0 512 512" style="enable-background:new 0 0 512 512;" xml:space="preserve">
	<path style="fill:#B3404A;" d="M338.872,470.495H219.255c-5.498,0-10.513-3.146-12.905-8.098c-2.392-4.952-1.74-10.835,1.677-15.142
	l158.794-200.163c4.917-6.203,13.934-7.241,20.135-2.32c6.202,4.919,7.241,13.934,2.32,20.135L248.919,441.831h83.028L479.371,256
	L331.948,70.169H248.92l82.886,104.478c4.92,6.202,3.881,15.217-2.32,20.135c-6.199,4.92-15.215,3.881-20.135-2.32L208.029,64.745
	c-3.418-4.307-4.069-10.19-1.677-15.142c2.392-4.952,7.407-8.098,12.905-8.098h119.617c4.374,0,8.509,1.998,11.228,5.425
	l158.794,200.163c4.139,5.217,4.139,12.598,0,17.815L350.1,465.069C347.381,468.496,343.246,470.495,338.872,470.495z" />
	<polygon style="fill:#F4B2B0;" points="133.949,55.837 292.745,256 133.949,456.163 14.332,456.163 173.127,256 14.332,55.837 " />
	<path style="fill:#B3404A;" d="M133.949,470.495H14.332c-5.499,0-10.513-3.146-12.905-8.098c-2.392-4.952-1.74-10.835,1.677-15.142
	L154.833,256L3.104,64.745c-3.418-4.307-4.069-10.19-1.677-15.142s7.405-8.098,12.905-8.098h119.617
	c4.374,0,8.509,1.998,11.228,5.425l158.796,200.163c4.139,5.217,4.139,12.598,0,17.815L145.177,465.069
	C142.458,468.496,138.324,470.495,133.949,470.495z M43.997,441.831h83.028L274.45,256L127.025,70.169H43.997l140.359,176.923
	c4.139,5.217,4.139,12.598,0,17.815L43.997,441.831z" />
</svg>
