<?xml version="1.0" encoding="iso-8859-1"?>
<!-- Generator: Adobe Illustrator 19.0.0, SVG Export Plug-In . SVG Version: 6.00 Build 0)  -->
<svg version="1.1" id="Layer_1" xmlns="http://www.w3.org/2000/svg" xmlns:xlink="http://www.w3.org/1999/xlink" x="0px" y="0px" viewBox="0 0 512 512" style="enable-background:new 0 0 512 512;" xml:space="preserve">
	<rect x="138.397" y="140.667" style="fill:#F4B2B0;" width="355.684" height="355.685" />
	<g>
		<path style="fill:#B3404A;" d="M494.072,125.002h-355.68c-8.647,0-15.659,7.012-15.659,15.659V355.68H33.588v-59.302
		c0-8.647-7.012-15.659-15.659-15.659s-15.659,7.012-15.659,15.659v74.961c0,8.647,7.012,15.659,15.659,15.659h104.804v109.342
		c0,8.647,7.012,15.659,15.659,15.659h355.68c8.647,0,15.659-7.012,15.659-15.659v-355.68
		C509.731,132.014,502.719,125.002,494.072,125.002z M478.412,480.681H154.051V156.32h324.361L478.412,480.681L478.412,480.681z" />
		<path style="fill:#B3404A;" d="M17.928,194.037c8.647,0,15.659-7.012,15.659-15.659V31.319h324.361v37.058
		c0,8.647,7.012,15.659,15.659,15.659c8.647,0,15.659-7.012,15.659-15.659V15.659C389.267,7.012,382.255,0,373.608,0H17.928
		C9.281,0,2.269,7.012,2.269,15.659v162.719C2.269,187.026,9.281,194.037,17.928,194.037z" />
		<path style="fill:#B3404A;" d="M317.808,332.584c4.009,0,8.014-1.53,11.073-4.587l64.836-64.837v36.358
		c0,8.647,7.012,15.659,15.659,15.659c8.647,0,15.659-7.012,15.659-15.659v-74.162c0-8.647-7.012-15.659-15.659-15.659h-74.162
		c-8.647,0-15.659,7.012-15.659,15.659s7.012,15.659,15.659,15.659h36.358l-64.836,64.837c-6.115,6.115-6.115,16.03,0,22.147
		C309.793,331.054,313.801,332.584,317.808,332.584z" />
		<path style="fill:#B3404A;" d="M223.085,427.305h74.164c8.647,0,15.659-7.012,15.659-15.659c0-8.647-7.012-15.659-15.659-15.659
		H260.89l21.405-21.403c6.115-6.115,6.115-16.029,0-22.147c-6.115-6.11-16.027-6.113-22.147,0l-21.405,21.403v-36.358
		c0-8.647-7.012-15.659-15.659-15.659s-15.659,7.012-15.659,15.659v74.162C207.426,420.293,214.436,427.305,223.085,427.305z" />
	</g>
</svg>
